<?xml version="1.0" encoding="UTF-8" standalone="no"?>
<!DOCTYPE svg PUBLIC "-//W3C//DTD SVG 1.1//EN" "http://www.w3.org/Graphics/SVG/1.1/DTD/svg11.dtd">
<svg version="1.1" xmlns="http://www.w3.org/2000/svg" xmlns:xl="http://www.w3.org/1999/xlink" xmlns:dc="http://purl.org/dc/elements/1.1/" viewBox="212 -5 368 373" width="368" height="373">
  <defs>
    <linearGradient x1="0" x2="1" id="Gradient" gradientUnits="userSpaceOnUse">
      <stop offset="0" stop-color="#6d9df5"/>
      <stop offset=".6008893" stop-color="#b66a9a"/>
      <stop offset="1" stop-color="#f53825"/>
    </linearGradient>
    <linearGradient id="Obj_Gradient" xl:href="#Gradient" gradientTransform="translate(374.4866 37.83118) scale(42.63666)"/>
  </defs>
  <metadata> Produced by OmniGraffle 7.18.1\n2021-01-03 14:56:45 +0000</metadata>
  <g id="Canvas_1" stroke="none" stroke-opacity="1" stroke-dasharray="none" fill="none" fill-opacity="1">
    <title>Canvas 1</title>
    <g id="Canvas_1_Layer_1">
      <title>Layer 1</title>
      <g id="Line_6">
        <path d="M 295.54614 363.79264 L 544.7872 363.79264 L 544.7872 179.18662 L 575.60986 179.18662 L 395.82324 -.6 L 216 179.22324 L 249.22778 179.22324 L 249.22778 363.79703 L 295.65637 363.79703" stroke="black" stroke-linecap="round" stroke-linejoin="round" stroke-width="8"/>
      </g>
      <g id="Line_7">
        <path d="M 295.54614 363.79264 L 544.7872 363.79264 L 544.7872 179.18662 L 575.60986 179.18662 L 395.82324 -.6 L 216 179.22324 L 249.22778 179.22324 L 249.22778 363.79703 L 295.65637 363.79703" stroke="white" stroke-linecap="round" stroke-linejoin="round" stroke-width="4"/>
      </g>
      <g id="Line_13">
        <path d="M 298.04614 43.720114 L 298.04614 113.36764 L 359.20493 113.36764" stroke="black" stroke-linecap="round" stroke-linejoin="round" stroke-width="7"/>
      </g>
      <g id="Graphic_14">
        <path d="M 282.54614 36.16764 L 298.04614 51.66764 L 313.54614 36.16764 Z" fill="white"/>
        <path d="M 282.54614 36.16764 L 298.04614 51.66764 L 313.54614 36.16764 Z" stroke="black" stroke-linecap="round" stroke-linejoin="round" stroke-width="2"/>
      </g>
      <g id="Line_15">
        <path d="M 493.5637 43.720114 L 493.5637 113.36764 L 432.40493 113.36764" stroke="black" stroke-linecap="round" stroke-linejoin="round" stroke-width="7"/>
      </g>
      <g id="Graphic_16">
        <path d="M 478.04614 51.66764 L 493.54614 36.16764 L 509.04614 51.66764 Z" fill="white"/>
        <path d="M 478.04614 51.66764 L 493.54614 36.16764 L 509.04614 51.66764 Z" stroke="black" stroke-linecap="round" stroke-linejoin="round" stroke-width="2"/>
      </g>
      <g id="Line_17">
        <path d="M 298.04614 43.720114 L 298.04614 113.36764 L 359.20493 113.36764" stroke="white" stroke-linecap="round" stroke-linejoin="round" stroke-width="3"/>
      </g>
      <g id="Line_18">
        <path d="M 493.5637 43.720114 L 493.5637 113.36764 L 432.40493 113.36764" stroke="white" stroke-linecap="round" stroke-linejoin="round" stroke-width="3"/>
      </g>
      <g id="Line_23">
        <path d="M 298.04614 234.29264 L 298.04614 174.29264 L 359.20493 174.29264" stroke="black" stroke-linecap="round" stroke-linejoin="round" stroke-width="7"/>
      </g>
      <g id="Graphic_24">
        <path d="M 282.54614 235.29264 L 298.04614 250.79264 L 313.54614 235.29264 Z" fill="white"/>
        <path d="M 282.54614 235.29264 L 298.04614 250.79264 L 313.54614 235.29264 Z" stroke="black" stroke-linecap="round" stroke-linejoin="round" stroke-width="2"/>
      </g>
      <g id="Line_25">
        <path d="M 298.04614 242.75 L 298.04614 174.29264 L 359.20493 174.29264" stroke="white" stroke-linecap="round" stroke-linejoin="round" stroke-width="3"/>
      </g>
      <g id="Line_26">
        <path d="M 493.5637 242.75 L 493.5637 174.29264 L 432.40493 174.29264" stroke="black" stroke-linecap="round" stroke-linejoin="round" stroke-width="7"/>
      </g>
      <g id="Graphic_27">
        <path d="M 509.04614 250.79264 L 493.54614 235.29264 L 478.04614 250.79264 Z" fill="white"/>
        <path d="M 509.04614 250.79264 L 493.54614 235.29264 L 478.04614 250.79264 Z" stroke="black" stroke-linecap="round" stroke-linejoin="round" stroke-width="2"/>
      </g>
      <g id="Line_28">
        <path d="M 493.5637 242.75 L 493.5637 174.29264 L 432.40493 174.29264" stroke="white" stroke-linecap="round" stroke-linejoin="round" stroke-width="3"/>
      </g>
      <g id="Graphic_10">
        <path d="M 431.2243 107.19265 L 360.38558 107.19265 C 359.7244 107.19265 359.20493 107.71213 359.20493 108.3733 L 359.20493 179.212 C 359.20493 179.87317 359.7244 180.39265 360.38558 180.39265 L 431.2243 180.39265 C 431.88545 180.39265 432.40493 179.87317 432.40493 179.212 L 432.40493 108.3733 C 432.40493 107.71213 431.88545 107.19265 431.2243 107.19265 Z M 364.6123 111.37213 C 365.67487 111.37213 366.54854 112.24581 366.54854 113.30839 C 366.54854 114.37097 365.67487 115.24465 364.6123 115.24465 C 363.5497 115.24465 362.67603 114.37097 362.67603 113.30839 C 362.67603 112.24581 363.5497 111.37213 364.6123 111.37213 Z M 364.6123 176.21317 C 363.5497 176.21317 362.67603 175.33949 362.67603 174.2769 C 362.67603 173.21433 363.5497 172.34065 364.6123 172.34065 C 365.67487 172.34065 366.54854 173.21433 366.54854 174.2769 C 366.54854 175.33949 365.67487 176.21317 364.6123 176.21317 Z M 395.80493 173.30878 C 379.53564 173.30878 366.2888 160.06194 366.2888 143.79265 C 366.2888 127.52336 379.53564 114.27652 395.80493 114.27652 C 412.0742 114.27652 425.32106 127.52336 425.32106 143.79265 C 425.32106 160.06194 412.0742 173.30878 395.80493 173.30878 Z M 426.9976 176.21317 C 425.935 176.21317 425.0613 175.33949 425.0613 174.2769 C 425.0613 173.21433 425.935 172.34065 426.9976 172.34065 C 428.06016 172.34065 428.93384 173.21433 428.93384 174.2769 C 428.93384 175.33949 428.06016 176.21317 426.9976 176.21317 Z M 426.9976 115.24465 C 425.935 115.24465 425.0613 114.37097 425.0613 113.30839 C 425.0613 112.24581 425.935 111.37213 426.9976 111.37213 C 428.06016 111.37213 428.93384 112.24581 428.93384 113.30839 C 428.93384 114.37097 428.06016 115.24465 426.9976 115.24465 Z" fill="black"/>
        <path d="M 431.2243 107.19265 L 360.38558 107.19265 C 359.7244 107.19265 359.20493 107.71213 359.20493 108.3733 L 359.20493 179.212 C 359.20493 179.87317 359.7244 180.39265 360.38558 180.39265 L 431.2243 180.39265 C 431.88545 180.39265 432.40493 179.87317 432.40493 179.212 L 432.40493 108.3733 C 432.40493 107.71213 431.88545 107.19265 431.2243 107.19265 Z M 364.6123 111.37213 C 365.67487 111.37213 366.54854 112.24581 366.54854 113.30839 C 366.54854 114.37097 365.67487 115.24465 364.6123 115.24465 C 363.5497 115.24465 362.67603 114.37097 362.67603 113.30839 C 362.67603 112.24581 363.5497 111.37213 364.6123 111.37213 Z M 364.6123 176.21317 C 363.5497 176.21317 362.67603 175.33949 362.67603 174.2769 C 362.67603 173.21433 363.5497 172.34065 364.6123 172.34065 C 365.67487 172.34065 366.54854 173.21433 366.54854 174.2769 C 366.54854 175.33949 365.67487 176.21317 364.6123 176.21317 Z M 395.80493 173.30878 C 379.53564 173.30878 366.2888 160.06194 366.2888 143.79265 C 366.2888 127.52336 379.53564 114.27652 395.80493 114.27652 C 412.0742 114.27652 425.32106 127.52336 425.32106 143.79265 C 425.32106 160.06194 412.0742 173.30878 395.80493 173.30878 Z M 426.9976 176.21317 C 425.935 176.21317 425.0613 175.33949 425.0613 174.2769 C 425.0613 173.21433 425.935 172.34065 426.9976 172.34065 C 428.06016 172.34065 428.93384 173.21433 428.93384 174.2769 C 428.93384 175.33949 428.06016 176.21317 426.9976 176.21317 Z M 426.9976 115.24465 C 425.935 115.24465 425.0613 114.37097 425.0613 113.30839 C 425.0613 112.24581 425.935 111.37213 426.9976 111.37213 C 428.06016 111.37213 428.93384 112.24581 428.93384 113.30839 C 428.93384 114.37097 428.06016 115.24465 426.9976 115.24465 Z" stroke="white" stroke-linecap="butt" stroke-linejoin="round" stroke-width="2"/>
      </g>
      <g id="Graphic_29">
        <path d="M 396.7998 26.200847 C 390.68853 26.200847 385.6669 31.12775 385.52476 37.19163 L 385.809 37.19163 L 391.257 30.748757 L 391.8255 30.08552 L 392.44137 30.701383 L 401.63194 39.702456 L 405.1376 36.1494 L 405.3745 35.91253 L 405.7061 35.91253 L 407.98007 35.91253 C 407.1747 30.41714 402.4373 26.200847 396.7998 26.200847 Z" fill="white"/>
        <path d="M 396.7998 26.200847 C 390.68853 26.200847 385.6669 31.12775 385.52476 37.19163 L 385.809 37.19163 L 391.257 30.748757 L 391.8255 30.08552 L 392.44137 30.701383 L 401.63194 39.702456 L 405.1376 36.1494 L 405.3745 35.91253 L 405.7061 35.91253 L 407.98007 35.91253 C 407.1747 30.41714 402.4373 26.200847 396.7998 26.200847 Z" stroke="black" stroke-linecap="butt" stroke-linejoin="round" stroke-width=".5"/>
      </g>
      <g id="Graphic_30">
        <path d="M 389.74105 46.28745 C 391.73076 47.89817 394.2416 48.798277 396.7998 48.798277 C 399.5001 48.798277 402.15306 47.80342 404.19014 46.003207 C 405.99036 44.43986 407.26946 42.30803 407.79057 40.034074 L 407.0326 40.034074 L 402.20043 44.913603 L 401.63194 45.48209 L 401.06345 44.913603 L 392.0624 36.00728 L 387.89346 40.93418 L 387.6566 41.218426 L 387.2776 41.218426 L 386.1406 41.218426 C 386.85123 43.208137 388.08296 44.960977 389.74105 46.28745 Z" fill="white"/>
        <path d="M 389.74105 46.28745 C 391.73076 47.89817 394.2416 48.798277 396.7998 48.798277 C 399.5001 48.798277 402.15306 47.80342 404.19014 46.003207 C 405.99036 44.43986 407.26946 42.30803 407.79057 40.034074 L 407.0326 40.034074 L 402.20043 44.913603 L 401.63194 45.48209 L 401.06345 44.913603 L 392.0624 36.00728 L 387.89346 40.93418 L 387.6566 41.218426 L 387.2776 41.218426 L 386.1406 41.218426 C 386.85123 43.208137 388.08296 44.960977 389.74105 46.28745 Z" stroke="black" stroke-linecap="butt" stroke-linejoin="round" stroke-width=".5"/>
      </g>
      <g id="Graphic_31">
        <path d="M 383.91404 37.039004 L 384.7194 37.039004 C 384.8615 30.501383 390.2148 25.195488 396.7998 25.195488 C 402.91104 25.195488 408.02744 29.790772 408.78543 35.71253 L 409.5908 35.71253 L 411.2015 35.71253 C 410.39614 28.4643 404.2375 22.826784 396.7998 22.826784 C 388.8883 22.826784 382.4928 29.17491 382.3033 37.039004 Z" fill="white"/>
        <path d="M 383.91404 37.039004 L 384.7194 37.039004 C 384.8615 30.501383 390.2148 25.195488 396.7998 25.195488 C 402.91104 25.195488 408.02744 29.790772 408.78543 35.71253 L 409.5908 35.71253 L 411.2015 35.71253 C 410.39614 28.4643 404.2375 22.826784 396.7998 22.826784 C 388.8883 22.826784 382.4928 29.17491 382.3033 37.039004 Z" stroke="black" stroke-linecap="butt" stroke-linejoin="round" stroke-width=".5"/>
      </g>
      <g id="Graphic_32">
        <path d="M 408.89337 40.073945 C 407.6812 45.649937 402.73553 49.81981 396.82014 49.81981 C 391.3411 49.81981 386.6864 46.23178 385.0863 41.286117 L 384.7954 41.286117 L 384.21355 41.286117 L 382.5165 41.286117 C 384.16506 47.6379 389.935 52.29264 396.82014 52.29264 C 404.09317 52.29264 410.2025 47.00757 411.4147 40.073945 L 409.76613 40.073945 Z" fill="white"/>
        <path d="M 408.89337 40.073945 C 407.6812 45.649937 402.73553 49.81981 396.82014 49.81981 C 391.3411 49.81981 386.6864 46.23178 385.0863 41.286117 L 384.7954 41.286117 L 384.21355 41.286117 L 382.5165 41.286117 C 384.16506 47.6379 389.935 52.29264 396.82014 52.29264 C 404.09317 52.29264 410.2025 47.00757 411.4147 40.073945 L 409.76613 40.073945 Z" stroke="black" stroke-linecap="butt" stroke-linejoin="round" stroke-width=".5"/>
      </g>
      <g id="Graphic_33">
        <path d="M 417.0759 39.27609 L 417.12326 36.71789 L 405.7061 36.765264 L 401.63194 40.886808 L 391.8729 31.317246 L 386.188 37.99699 L 374.4866 37.99699 L 374.4866 40.413067 L 387.2776 40.413067 L 392.015 34.822927 L 401.63194 44.345114 L 406.6536 39.228715 Z" fill="url(#Obj_Gradient)"/>
        <path d="M 417.0759 39.27609 L 417.12326 36.71789 L 405.7061 36.765264 L 401.63194 40.886808 L 391.8729 31.317246 L 386.188 37.99699 L 374.4866 37.99699 L 374.4866 40.413067 L 387.2776 40.413067 L 392.015 34.822927 L 401.63194 44.345114 L 406.6536 39.228715 Z" stroke="black" stroke-linecap="butt" stroke-linejoin="round" stroke-width=".25"/>
      </g>
      <g id="Group_59">
        <g id="Group_60">
          <g id="Graphic_65">
            <path d="M 269.78528 143.5579 C 269.78528 141.43226 271.51497 139.70257 273.6406 139.70257 L 275.54744 139.70257 C 275.8913 139.1399 276.3706 138.65017 276.93328 138.31673 L 276.93328 132.89843 C 276.93328 132.71087 277.07915 132.565 277.2667 132.565 C 279.39235 132.565 281.12204 134.29468 281.12204 136.42033 L 281.12204 138.31673 C 281.69513 138.66059 282.16402 139.12948 282.5183 139.71299 L 287.9366 139.71299 C 288.12416 139.71299 288.27003 139.85887 288.27003 140.04642 C 288.27003 142.17206 286.54034 143.90175 284.4147 143.90175 L 282.50788 143.90175 C 282.16402 144.47484 281.6847 144.95415 281.11162 145.28759 L 281.11162 150.71631 C 281.11162 150.90387 280.96574 151.04975 280.7782 151.04975 C 278.65254 151.04975 276.92286 149.32006 276.92286 147.19441 L 276.92286 145.28759 C 276.3602 144.95415 275.88087 144.46442 275.53702 143.90175 L 270.11872 143.90175 C 269.94158 143.89133 269.78528 143.73504 269.78528 143.5579 Z M 277.60014 133.23186 L 277.60014 138.49387 C 277.60014 138.6189 277.53762 138.7231 277.423 138.78562 C 276.8395 139.09822 276.33935 139.59837 276.02675 140.18188 C 275.96423 140.28608 275.86003 140.35902 275.735 140.35902 L 273.6406 140.35902 C 271.99428 140.35902 270.6397 141.6094 270.473 143.21405 L 275.735 143.21405 C 275.86003 143.21405 275.96423 143.27656 276.02675 143.39118 C 276.34977 143.9747 276.8395 144.47484 277.423 144.77702 C 277.5272 144.83954 277.60014 144.94373 277.60014 145.06877 L 277.60014 147.17357 C 277.60014 148.8199 278.85052 150.17448 280.45517 150.3412 L 280.45517 145.06877 C 280.45517 144.94373 280.5281 144.82912 280.6323 144.77702 C 281.21582 144.46442 281.70555 143.98511 282.02856 143.39118 C 282.09108 143.28698 282.19528 143.21405 282.32032 143.21405 L 284.40428 143.21405 C 286.0506 143.21405 287.4156 141.96367 287.58232 140.35902 L 282.3099 140.35902 C 282.18486 140.35902 282.08066 140.2965 282.01814 140.18188 C 281.69513 139.58795 281.21582 139.09822 280.6219 138.78562 C 280.5177 138.7231 280.44475 138.6189 280.44475 138.49387 L 280.44475 136.39949 C 280.45517 134.76358 279.19437 133.39858 277.60014 133.23186 Z M 277.75644 141.78653 C 277.75644 141.0884 278.32953 140.52573 279.01724 140.52573 C 279.71537 140.52573 280.27804 141.0884 280.27804 141.78653 C 280.27804 142.48466 279.70495 143.04733 279.01724 143.04733 C 278.32953 143.05775 277.75644 142.48466 277.75644 141.78653 Z M 279.6216 141.78653 C 279.6216 141.46352 279.35067 141.1926 279.01724 141.1926 C 278.6838 141.1926 278.4129 141.46352 278.4129 141.78653 C 278.4129 142.11997 278.6838 142.39088 279.01724 142.39088 C 279.35067 142.39088 279.6216 142.11997 279.6216 141.78653 Z" fill="white"/>
            <path d="M 269.78528 143.5579 C 269.78528 141.43226 271.51497 139.70257 273.6406 139.70257 L 275.54744 139.70257 C 275.8913 139.1399 276.3706 138.65017 276.93328 138.31673 L 276.93328 132.89843 C 276.93328 132.71087 277.07915 132.565 277.2667 132.565 C 279.39235 132.565 281.12204 134.29468 281.12204 136.42033 L 281.12204 138.31673 C 281.69513 138.66059 282.16402 139.12948 282.5183 139.71299 L 287.9366 139.71299 C 288.12416 139.71299 288.27003 139.85887 288.27003 140.04642 C 288.27003 142.17206 286.54034 143.90175 284.4147 143.90175 L 282.50788 143.90175 C 282.16402 144.47484 281.6847 144.95415 281.11162 145.28759 L 281.11162 150.71631 C 281.11162 150.90387 280.96574 151.04975 280.7782 151.04975 C 278.65254 151.04975 276.92286 149.32006 276.92286 147.19441 L 276.92286 145.28759 C 276.3602 144.95415 275.88087 144.46442 275.53702 143.90175 L 270.11872 143.90175 C 269.94158 143.89133 269.78528 143.73504 269.78528 143.5579 Z M 277.60014 133.23186 L 277.60014 138.49387 C 277.60014 138.6189 277.53762 138.7231 277.423 138.78562 C 276.8395 139.09822 276.33935 139.59837 276.02675 140.18188 C 275.96423 140.28608 275.86003 140.35902 275.735 140.35902 L 273.6406 140.35902 C 271.99428 140.35902 270.6397 141.6094 270.473 143.21405 L 275.735 143.21405 C 275.86003 143.21405 275.96423 143.27656 276.02675 143.39118 C 276.34977 143.9747 276.8395 144.47484 277.423 144.77702 C 277.5272 144.83954 277.60014 144.94373 277.60014 145.06877 L 277.60014 147.17357 C 277.60014 148.8199 278.85052 150.17448 280.45517 150.3412 L 280.45517 145.06877 C 280.45517 144.94373 280.5281 144.82912 280.6323 144.77702 C 281.21582 144.46442 281.70555 143.98511 282.02856 143.39118 C 282.09108 143.28698 282.19528 143.21405 282.32032 143.21405 L 284.40428 143.21405 C 286.0506 143.21405 287.4156 141.96367 287.58232 140.35902 L 282.3099 140.35902 C 282.18486 140.35902 282.08066 140.2965 282.01814 140.18188 C 281.69513 139.58795 281.21582 139.09822 280.6219 138.78562 C 280.5177 138.7231 280.44475 138.6189 280.44475 138.49387 L 280.44475 136.39949 C 280.45517 134.76358 279.19437 133.39858 277.60014 133.23186 Z M 277.75644 141.78653 C 277.75644 141.0884 278.32953 140.52573 279.01724 140.52573 C 279.71537 140.52573 280.27804 141.0884 280.27804 141.78653 C 280.27804 142.48466 279.70495 143.04733 279.01724 143.04733 C 278.32953 143.05775 277.75644 142.48466 277.75644 141.78653 Z M 279.6216 141.78653 C 279.6216 141.46352 279.35067 141.1926 279.01724 141.1926 C 278.6838 141.1926 278.4129 141.46352 278.4129 141.78653 C 278.4129 142.11997 278.6838 142.39088 279.01724 142.39088 C 279.35067 142.39088 279.6216 142.11997 279.6216 141.78653 Z" stroke="black" stroke-linecap="butt" stroke-linejoin="round" stroke-width=".25"/>
          </g>
          <g id="Graphic_64">
            <path d="M 285.27955 150.32036 C 285.27955 149.66391 285.59214 149.04914 286.1548 148.59067 C 286.5716 148.24682 286.80084 147.8196 286.80084 147.36113 C 286.80084 146.9235 286.58202 146.49629 286.1965 146.16285 C 286.06103 146.03782 286.0402 145.82942 286.16523 145.69396 C 286.29027 145.5585 286.49866 145.53766 286.63412 145.6627 C 287.17595 146.1316 287.4677 146.73594 287.4677 147.36113 C 287.4677 148.01758 287.1551 148.63235 286.58202 149.10124 C 286.16523 149.43467 285.95683 149.86189 285.95683 150.32036 C 285.95683 150.74757 286.17565 151.17478 286.5716 151.50822 C 287.11343 151.9771 287.4156 152.57104 287.4156 153.20665 C 287.4156 153.8631 287.103 154.47786 286.5195 154.94676 C 286.37363 155.06137 286.16523 155.04053 286.0506 154.89466 C 285.936 154.74878 285.95683 154.54038 286.1027 154.42577 C 286.5195 154.08191 286.74874 153.64428 286.74874 153.19623 C 286.74874 152.76901 286.52992 152.3418 286.13397 152.00837 C 285.58172 151.53948 285.27955 150.94555 285.27955 150.32036 Z" fill="white"/>
            <path d="M 285.27955 150.32036 C 285.27955 149.66391 285.59214 149.04914 286.1548 148.59067 C 286.5716 148.24682 286.80084 147.8196 286.80084 147.36113 C 286.80084 146.9235 286.58202 146.49629 286.1965 146.16285 C 286.06103 146.03782 286.0402 145.82942 286.16523 145.69396 C 286.29027 145.5585 286.49866 145.53766 286.63412 145.6627 C 287.17595 146.1316 287.4677 146.73594 287.4677 147.36113 C 287.4677 148.01758 287.1551 148.63235 286.58202 149.10124 C 286.16523 149.43467 285.95683 149.86189 285.95683 150.32036 C 285.95683 150.74757 286.17565 151.17478 286.5716 151.50822 C 287.11343 151.9771 287.4156 152.57104 287.4156 153.20665 C 287.4156 153.8631 287.103 154.47786 286.5195 154.94676 C 286.37363 155.06137 286.16523 155.04053 286.0506 154.89466 C 285.936 154.74878 285.95683 154.54038 286.1027 154.42577 C 286.5195 154.08191 286.74874 153.64428 286.74874 153.19623 C 286.74874 152.76901 286.52992 152.3418 286.13397 152.00837 C 285.58172 151.53948 285.27955 150.94555 285.27955 150.32036 Z" stroke="black" stroke-linecap="butt" stroke-linejoin="round" stroke-width=".25"/>
          </g>
          <g id="Graphic_63">
            <path d="M 282.34116 150.32036 C 282.34116 149.66391 282.65375 149.04914 283.21642 148.59067 C 283.6332 148.24682 283.86245 147.8196 283.86245 147.36113 C 283.86245 146.9235 283.64364 146.49629 283.2581 146.16285 C 283.12264 146.04823 283.1018 145.82942 283.21642 145.69396 C 283.33104 145.5585 283.54986 145.53766 283.6853 145.65228 C 284.22714 146.11075 284.52932 146.7151 284.52932 147.36113 C 284.52932 148.01758 284.21673 148.63235 283.64364 149.10124 C 283.22684 149.43467 283.01845 149.86189 283.01845 150.32036 C 283.01845 150.75799 283.23726 151.17478 283.6228 151.50822 C 284.16463 151.9771 284.4668 152.58146 284.4668 153.20665 C 284.4668 153.8631 284.1542 154.47786 283.5811 154.94676 C 283.43524 155.06137 283.22684 155.04053 283.11222 154.89466 C 282.9976 154.74878 283.01845 154.54038 283.16432 154.42577 C 283.5811 154.08191 283.81035 153.6547 283.81035 153.19623 C 283.81035 152.76901 283.59154 152.3418 283.1956 152.00837 C 282.6329 151.5499 282.34116 150.94555 282.34116 150.32036 Z" fill="white"/>
            <path d="M 282.34116 150.32036 C 282.34116 149.66391 282.65375 149.04914 283.21642 148.59067 C 283.6332 148.24682 283.86245 147.8196 283.86245 147.36113 C 283.86245 146.9235 283.64364 146.49629 283.2581 146.16285 C 283.12264 146.04823 283.1018 145.82942 283.21642 145.69396 C 283.33104 145.5585 283.54986 145.53766 283.6853 145.65228 C 284.22714 146.11075 284.52932 146.7151 284.52932 147.36113 C 284.52932 148.01758 284.21673 148.63235 283.64364 149.10124 C 283.22684 149.43467 283.01845 149.86189 283.01845 150.32036 C 283.01845 150.75799 283.23726 151.17478 283.6228 151.50822 C 284.16463 151.9771 284.4668 152.58146 284.4668 153.20665 C 284.4668 153.8631 284.1542 154.47786 283.5811 154.94676 C 283.43524 155.06137 283.22684 155.04053 283.11222 154.89466 C 282.9976 154.74878 283.01845 154.54038 283.16432 154.42577 C 283.5811 154.08191 283.81035 153.6547 283.81035 153.19623 C 283.81035 152.76901 283.59154 152.3418 283.1956 152.00837 C 282.6329 151.5499 282.34116 150.94555 282.34116 150.32036 Z" stroke="black" stroke-linecap="butt" stroke-linejoin="round" stroke-width=".25"/>
          </g>
          <g id="Graphic_62">
            <path d="M 273.526 150.32036 C 273.526 149.66391 273.8386 149.04914 274.40126 148.59067 C 274.81805 148.24682 275.0473 147.8196 275.0473 147.36113 C 275.0473 146.9235 274.82847 146.49629 274.44294 146.16285 C 274.30748 146.03782 274.28664 145.82942 274.41168 145.69396 C 274.5263 145.5585 274.7451 145.53766 274.88057 145.6627 C 275.4224 146.1316 275.71416 146.73594 275.71416 147.36113 C 275.71416 148.01758 275.40156 148.63235 274.82847 149.10124 C 274.41168 149.43467 274.2033 149.86189 274.2033 150.32036 C 274.2033 150.74757 274.4221 151.17478 274.81805 151.50822 C 275.35988 151.9771 275.66206 152.57104 275.66206 153.20665 C 275.66206 153.8631 275.34946 154.47786 274.76595 154.94676 C 274.62008 155.06137 274.41168 155.04053 274.29706 154.89466 C 274.18244 154.74878 274.2033 154.54038 274.34916 154.42577 C 274.76595 154.08191 274.9952 153.64428 274.9952 153.19623 C 274.9952 152.76901 274.77637 152.3418 274.38042 152.00837 C 273.82817 151.53948 273.526 150.94555 273.526 150.32036 Z" fill="white"/>
            <path d="M 273.526 150.32036 C 273.526 149.66391 273.8386 149.04914 274.40126 148.59067 C 274.81805 148.24682 275.0473 147.8196 275.0473 147.36113 C 275.0473 146.9235 274.82847 146.49629 274.44294 146.16285 C 274.30748 146.03782 274.28664 145.82942 274.41168 145.69396 C 274.5263 145.5585 274.7451 145.53766 274.88057 145.6627 C 275.4224 146.1316 275.71416 146.73594 275.71416 147.36113 C 275.71416 148.01758 275.40156 148.63235 274.82847 149.10124 C 274.41168 149.43467 274.2033 149.86189 274.2033 150.32036 C 274.2033 150.74757 274.4221 151.17478 274.81805 151.50822 C 275.35988 151.9771 275.66206 152.57104 275.66206 153.20665 C 275.66206 153.8631 275.34946 154.47786 274.76595 154.94676 C 274.62008 155.06137 274.41168 155.04053 274.29706 154.89466 C 274.18244 154.74878 274.2033 154.54038 274.34916 154.42577 C 274.76595 154.08191 274.9952 153.64428 274.9952 153.19623 C 274.9952 152.76901 274.77637 152.3418 274.38042 152.00837 C 273.82817 151.53948 273.526 150.94555 273.526 150.32036 Z" stroke="black" stroke-linecap="butt" stroke-linejoin="round" stroke-width=".25"/>
          </g>
          <g id="Graphic_61">
            <path d="M 270.5876 150.32036 C 270.5876 149.66391 270.9002 149.04914 271.46287 148.59067 C 271.87967 148.24682 272.1089 147.8196 272.1089 147.36113 C 272.1089 146.9235 271.8901 146.49629 271.50455 146.16285 C 271.3691 146.04823 271.34825 145.82942 271.46287 145.69396 C 271.5775 145.5585 271.7963 145.53766 271.93176 145.65228 C 272.4736 146.11075 272.77577 146.7151 272.77577 147.36113 C 272.77577 148.01758 272.46317 148.63235 271.8901 149.10124 C 271.4733 149.43467 271.2649 149.86189 271.2649 150.32036 C 271.2649 150.75799 271.4837 151.17478 271.86925 151.50822 C 272.41108 151.9771 272.71325 152.58146 272.71325 153.20665 C 272.71325 153.8631 272.40066 154.47786 271.82757 154.94676 C 271.6817 155.06137 271.4733 155.04053 271.35867 154.89466 C 271.24406 154.74878 271.2649 154.54038 271.41077 154.42577 C 271.82757 154.08191 272.0568 153.6547 272.0568 153.19623 C 272.0568 152.76901 271.838 152.3418 271.44203 152.00837 C 270.88978 151.5499 270.5876 150.94555 270.5876 150.32036 Z" fill="white"/>
            <path d="M 270.5876 150.32036 C 270.5876 149.66391 270.9002 149.04914 271.46287 148.59067 C 271.87967 148.24682 272.1089 147.8196 272.1089 147.36113 C 272.1089 146.9235 271.8901 146.49629 271.50455 146.16285 C 271.3691 146.04823 271.34825 145.82942 271.46287 145.69396 C 271.5775 145.5585 271.7963 145.53766 271.93176 145.65228 C 272.4736 146.11075 272.77577 146.7151 272.77577 147.36113 C 272.77577 148.01758 272.46317 148.63235 271.8901 149.10124 C 271.4733 149.43467 271.2649 149.86189 271.2649 150.32036 C 271.2649 150.75799 271.4837 151.17478 271.86925 151.50822 C 272.41108 151.9771 272.71325 152.58146 272.71325 153.20665 C 272.71325 153.8631 272.40066 154.47786 271.82757 154.94676 C 271.6817 155.06137 271.4733 155.04053 271.35867 154.89466 C 271.24406 154.74878 271.2649 154.54038 271.41077 154.42577 C 271.82757 154.08191 272.0568 153.6547 272.0568 153.19623 C 272.0568 152.76901 271.838 152.3418 271.44203 152.00837 C 270.88978 151.5499 270.5876 150.94555 270.5876 150.32036 Z" stroke="black" stroke-linecap="butt" stroke-linejoin="round" stroke-width=".25"/>
          </g>
        </g>
      </g>
      <g id="Group_68">
        <g id="Group_69">
          <g id="Graphic_74">
            <path d="M 455.0568 144.0274 C 455.0568 146.15304 453.3271 147.88273 451.20146 147.88273 L 449.29464 147.88273 C 448.9508 148.4454 448.47147 148.93513 447.9088 149.26857 L 447.9088 154.68687 C 447.9088 154.87443 447.7629 155.0203 447.57537 155.0203 C 445.4497 155.0203 443.72004 153.29061 443.72004 151.16497 L 443.72004 149.26857 C 443.14695 148.92471 442.67805 148.45582 442.3238 147.87231 L 436.9055 147.87231 C 436.7179 147.87231 436.57204 147.72643 436.57204 147.53888 C 436.57204 145.41323 438.30173 143.68355 440.4274 143.68355 L 442.3342 143.68355 C 442.67805 143.11046 443.15737 142.63114 443.73046 142.29771 L 443.73046 136.86899 C 443.73046 136.68143 443.87633 136.53555 444.0639 136.53555 C 446.18953 136.53555 447.9192 138.26524 447.9192 140.39088 L 447.9192 142.29771 C 448.4819 142.63114 448.9612 143.12088 449.30506 143.68355 L 454.72336 143.68355 C 454.9005 143.69397 455.0568 143.85026 455.0568 144.0274 Z M 447.24193 154.35344 L 447.24193 149.09143 C 447.24193 148.9664 447.30445 148.8622 447.41907 148.79967 C 448.0026 148.48708 448.50273 147.98693 448.8153 147.40342 C 448.87784 147.29922 448.98204 147.22628 449.1071 147.22628 L 451.20146 147.22628 C 452.8478 147.22628 454.20237 145.9759 454.3691 144.37125 L 449.1071 144.37125 C 448.98204 144.37125 448.87784 144.30873 448.8153 144.19412 C 448.4923 143.6106 448.0026 143.11046 447.41907 142.80828 C 447.31487 142.74576 447.24193 142.64156 447.24193 142.51653 L 447.24193 140.41172 C 447.24193 138.7654 445.99156 137.41082 444.3869 137.2441 L 444.3869 142.51653 C 444.3869 142.64156 444.31397 142.75618 444.20977 142.80828 C 443.62626 143.12088 443.13653 143.60019 442.8135 144.19412 C 442.751 144.29831 442.6468 144.37125 442.52176 144.37125 L 440.4378 144.37125 C 438.79146 144.37125 437.42647 145.62163 437.25975 147.22628 L 442.5322 147.22628 C 442.6572 147.22628 442.7614 147.2888 442.82393 147.40342 C 443.14695 147.99735 443.62626 148.48708 444.2202 148.79967 C 444.3244 148.8622 444.3973 148.9664 444.3973 149.09143 L 444.3973 151.18581 C 444.3869 152.82172 445.6477 154.18672 447.24193 154.35344 Z M 447.08564 145.79877 C 447.08564 146.4969 446.51255 147.05957 445.82484 147.05957 C 445.1267 147.05957 444.56404 146.4969 444.56404 145.79877 C 444.56404 145.10064 445.13713 144.53797 445.82484 144.53797 C 446.51255 144.52755 447.08564 145.10064 447.08564 145.79877 Z M 445.2205 145.79877 C 445.2205 146.12178 445.4914 146.3927 445.82484 146.3927 C 446.15827 146.3927 446.4292 146.12178 446.4292 145.79877 C 446.4292 145.46533 446.15827 145.19442 445.82484 145.19442 C 445.4914 145.19442 445.2205 145.46533 445.2205 145.79877 Z" fill="white"/>
            <path d="M 455.0568 144.0274 C 455.0568 146.15304 453.3271 147.88273 451.20146 147.88273 L 449.29464 147.88273 C 448.9508 148.4454 448.47147 148.93513 447.9088 149.26857 L 447.9088 154.68687 C 447.9088 154.87443 447.7629 155.0203 447.57537 155.0203 C 445.4497 155.0203 443.72004 153.29061 443.72004 151.16497 L 443.72004 149.26857 C 443.14695 148.92471 442.67805 148.45582 442.3238 147.87231 L 436.9055 147.87231 C 436.7179 147.87231 436.57204 147.72643 436.57204 147.53888 C 436.57204 145.41323 438.30173 143.68355 440.4274 143.68355 L 442.3342 143.68355 C 442.67805 143.11046 443.15737 142.63114 443.73046 142.29771 L 443.73046 136.86899 C 443.73046 136.68143 443.87633 136.53555 444.0639 136.53555 C 446.18953 136.53555 447.9192 138.26524 447.9192 140.39088 L 447.9192 142.29771 C 448.4819 142.63114 448.9612 143.12088 449.30506 143.68355 L 454.72336 143.68355 C 454.9005 143.69397 455.0568 143.85026 455.0568 144.0274 Z M 447.24193 154.35344 L 447.24193 149.09143 C 447.24193 148.9664 447.30445 148.8622 447.41907 148.79967 C 448.0026 148.48708 448.50273 147.98693 448.8153 147.40342 C 448.87784 147.29922 448.98204 147.22628 449.1071 147.22628 L 451.20146 147.22628 C 452.8478 147.22628 454.20237 145.9759 454.3691 144.37125 L 449.1071 144.37125 C 448.98204 144.37125 448.87784 144.30873 448.8153 144.19412 C 448.4923 143.6106 448.0026 143.11046 447.41907 142.80828 C 447.31487 142.74576 447.24193 142.64156 447.24193 142.51653 L 447.24193 140.41172 C 447.24193 138.7654 445.99156 137.41082 444.3869 137.2441 L 444.3869 142.51653 C 444.3869 142.64156 444.31397 142.75618 444.20977 142.80828 C 443.62626 143.12088 443.13653 143.60019 442.8135 144.19412 C 442.751 144.29831 442.6468 144.37125 442.52176 144.37125 L 440.4378 144.37125 C 438.79146 144.37125 437.42647 145.62163 437.25975 147.22628 L 442.5322 147.22628 C 442.6572 147.22628 442.7614 147.2888 442.82393 147.40342 C 443.14695 147.99735 443.62626 148.48708 444.2202 148.79967 C 444.3244 148.8622 444.3973 148.9664 444.3973 149.09143 L 444.3973 151.18581 C 444.3869 152.82172 445.6477 154.18672 447.24193 154.35344 Z M 447.08564 145.79877 C 447.08564 146.4969 446.51255 147.05957 445.82484 147.05957 C 445.1267 147.05957 444.56404 146.4969 444.56404 145.79877 C 444.56404 145.10064 445.13713 144.53797 445.82484 144.53797 C 446.51255 144.52755 447.08564 145.10064 447.08564 145.79877 Z M 445.2205 145.79877 C 445.2205 146.12178 445.4914 146.3927 445.82484 146.3927 C 446.15827 146.3927 446.4292 146.12178 446.4292 145.79877 C 446.4292 145.46533 446.15827 145.19442 445.82484 145.19442 C 445.4914 145.19442 445.2205 145.46533 445.2205 145.79877 Z" stroke="black" stroke-linecap="butt" stroke-linejoin="round" stroke-width=".25"/>
          </g>
          <g id="Graphic_73">
            <path d="M 439.56253 137.26494 C 439.56253 137.92139 439.24994 138.53616 438.68727 138.99463 C 438.27047 139.33848 438.04124 139.7657 438.04124 140.22417 C 438.04124 140.6618 438.26005 141.08901 438.6456 141.42245 C 438.78104 141.54748 438.8019 141.75588 438.67685 141.89134 C 438.5518 142.0268 438.3434 142.04764 438.20795 141.9226 C 437.6661 141.4537 437.37437 140.84936 437.37437 140.22417 C 437.37437 139.56772 437.68696 138.95295 438.26005 138.48406 C 438.67685 138.15062 438.88524 137.72341 438.88524 137.26494 C 438.88524 136.83773 438.66643 136.41052 438.27047 136.07708 C 437.72864 135.60819 437.42647 135.01426 437.42647 134.37865 C 437.42647 133.7222 437.73906 133.10743 438.32257 132.63854 C 438.46845 132.52393 438.67685 132.54476 438.79146 132.69064 C 438.9061 132.83652 438.88524 133.04492 438.73937 133.15953 C 438.32257 133.50339 438.09334 133.94102 438.09334 134.38907 C 438.09334 134.81628 438.31215 135.2435 438.7081 135.57693 C 439.26036 136.04582 439.56253 136.63975 439.56253 137.26494 Z" fill="white"/>
            <path d="M 439.56253 137.26494 C 439.56253 137.92139 439.24994 138.53616 438.68727 138.99463 C 438.27047 139.33848 438.04124 139.7657 438.04124 140.22417 C 438.04124 140.6618 438.26005 141.08901 438.6456 141.42245 C 438.78104 141.54748 438.8019 141.75588 438.67685 141.89134 C 438.5518 142.0268 438.3434 142.04764 438.20795 141.9226 C 437.6661 141.4537 437.37437 140.84936 437.37437 140.22417 C 437.37437 139.56772 437.68696 138.95295 438.26005 138.48406 C 438.67685 138.15062 438.88524 137.72341 438.88524 137.26494 C 438.88524 136.83773 438.66643 136.41052 438.27047 136.07708 C 437.72864 135.60819 437.42647 135.01426 437.42647 134.37865 C 437.42647 133.7222 437.73906 133.10743 438.32257 132.63854 C 438.46845 132.52393 438.67685 132.54476 438.79146 132.69064 C 438.9061 132.83652 438.88524 133.04492 438.73937 133.15953 C 438.32257 133.50339 438.09334 133.94102 438.09334 134.38907 C 438.09334 134.81628 438.31215 135.2435 438.7081 135.57693 C 439.26036 136.04582 439.56253 136.63975 439.56253 137.26494 Z" stroke="black" stroke-linecap="butt" stroke-linejoin="round" stroke-width=".25"/>
          </g>
          <g id="Graphic_72">
            <path d="M 442.5009 137.26494 C 442.5009 137.92139 442.1883 138.53616 441.62565 138.99463 C 441.20886 139.33848 440.9796 139.7657 440.9796 140.22417 C 440.9796 140.6618 441.19844 141.08901 441.584 141.42245 C 441.71943 141.53706 441.74027 141.75588 441.62565 141.89134 C 441.51104 142.0268 441.2922 142.04764 441.15676 141.93302 C 440.61493 141.47455 440.31276 140.8702 440.31276 140.22417 C 440.31276 139.56772 440.62535 138.95295 441.19844 138.48406 C 441.61523 138.15062 441.82363 137.72341 441.82363 137.26494 C 441.82363 136.82731 441.6048 136.41052 441.2193 136.07708 C 440.67745 135.60819 440.3753 135.00384 440.3753 134.37865 C 440.3753 133.7222 440.68787 133.10743 441.26096 132.63854 C 441.40684 132.52393 441.61523 132.54476 441.72985 132.69064 C 441.84447 132.83652 441.82363 133.04492 441.67775 133.15953 C 441.26096 133.50339 441.0317 133.9306 441.0317 134.38907 C 441.0317 134.81628 441.25054 135.2435 441.6465 135.57693 C 442.20916 136.0354 442.5009 136.63975 442.5009 137.26494 Z" fill="white"/>
            <path d="M 442.5009 137.26494 C 442.5009 137.92139 442.1883 138.53616 441.62565 138.99463 C 441.20886 139.33848 440.9796 139.7657 440.9796 140.22417 C 440.9796 140.6618 441.19844 141.08901 441.584 141.42245 C 441.71943 141.53706 441.74027 141.75588 441.62565 141.89134 C 441.51104 142.0268 441.2922 142.04764 441.15676 141.93302 C 440.61493 141.47455 440.31276 140.8702 440.31276 140.22417 C 440.31276 139.56772 440.62535 138.95295 441.19844 138.48406 C 441.61523 138.15062 441.82363 137.72341 441.82363 137.26494 C 441.82363 136.82731 441.6048 136.41052 441.2193 136.07708 C 440.67745 135.60819 440.3753 135.00384 440.3753 134.37865 C 440.3753 133.7222 440.68787 133.10743 441.26096 132.63854 C 441.40684 132.52393 441.61523 132.54476 441.72985 132.69064 C 441.84447 132.83652 441.82363 133.04492 441.67775 133.15953 C 441.26096 133.50339 441.0317 133.9306 441.0317 134.38907 C 441.0317 134.81628 441.25054 135.2435 441.6465 135.57693 C 442.20916 136.0354 442.5009 136.63975 442.5009 137.26494 Z" stroke="black" stroke-linecap="butt" stroke-linejoin="round" stroke-width=".25"/>
          </g>
          <g id="Graphic_71">
            <path d="M 451.3161 137.26494 C 451.3161 137.92139 451.0035 138.53616 450.4408 138.99463 C 450.024 139.33848 449.7948 139.7657 449.7948 140.22417 C 449.7948 140.6618 450.0136 141.08901 450.39914 141.42245 C 450.5346 141.54748 450.55543 141.75588 450.4304 141.89134 C 450.3158 142.0268 450.09696 142.04764 449.9615 141.9226 C 449.4197 141.4537 449.1279 140.84936 449.1279 140.22417 C 449.1279 139.56772 449.4405 138.95295 450.0136 138.48406 C 450.4304 138.15062 450.6388 137.72341 450.6388 137.26494 C 450.6388 136.83773 450.42 136.41052 450.024 136.07708 C 449.4822 135.60819 449.18 135.01426 449.18 134.37865 C 449.18 133.7222 449.4926 133.10743 450.0761 132.63854 C 450.222 132.52393 450.4304 132.54476 450.545 132.69064 C 450.65963 132.83652 450.6388 133.04492 450.4929 133.15953 C 450.0761 133.50339 449.8469 133.94102 449.8469 134.38907 C 449.8469 134.81628 450.0657 135.2435 450.46166 135.57693 C 451.0139 136.04582 451.3161 136.63975 451.3161 137.26494 Z" fill="white"/>
            <path d="M 451.3161 137.26494 C 451.3161 137.92139 451.0035 138.53616 450.4408 138.99463 C 450.024 139.33848 449.7948 139.7657 449.7948 140.22417 C 449.7948 140.6618 450.0136 141.08901 450.39914 141.42245 C 450.5346 141.54748 450.55543 141.75588 450.4304 141.89134 C 450.3158 142.0268 450.09696 142.04764 449.9615 141.9226 C 449.4197 141.4537 449.1279 140.84936 449.1279 140.22417 C 449.1279 139.56772 449.4405 138.95295 450.0136 138.48406 C 450.4304 138.15062 450.6388 137.72341 450.6388 137.26494 C 450.6388 136.83773 450.42 136.41052 450.024 136.07708 C 449.4822 135.60819 449.18 135.01426 449.18 134.37865 C 449.18 133.7222 449.4926 133.10743 450.0761 132.63854 C 450.222 132.52393 450.4304 132.54476 450.545 132.69064 C 450.65963 132.83652 450.6388 133.04492 450.4929 133.15953 C 450.0761 133.50339 449.8469 133.94102 449.8469 134.38907 C 449.8469 134.81628 450.0657 135.2435 450.46166 135.57693 C 451.0139 136.04582 451.3161 136.63975 451.3161 137.26494 Z" stroke="black" stroke-linecap="butt" stroke-linejoin="round" stroke-width=".25"/>
          </g>
          <g id="Graphic_70">
            <path d="M 454.25447 137.26494 C 454.25447 137.92139 453.9419 138.53616 453.3792 138.99463 C 452.9624 139.33848 452.7332 139.7657 452.7332 140.22417 C 452.7332 140.6618 452.952 141.08901 453.3375 141.42245 C 453.473 141.53706 453.4938 141.75588 453.3792 141.89134 C 453.2646 142.0268 453.04577 142.04764 452.9103 141.93302 C 452.3685 141.47455 452.0663 140.8702 452.0663 140.22417 C 452.0663 139.56772 452.3789 138.95295 452.952 138.48406 C 453.3688 138.15062 453.5772 137.72341 453.5772 137.26494 C 453.5772 136.82731 453.35836 136.41052 452.97283 136.07708 C 452.431 135.60819 452.1288 135.00384 452.1288 134.37865 C 452.1288 133.7222 452.4414 133.10743 453.0145 132.63854 C 453.1604 132.52393 453.3688 132.54476 453.4834 132.69064 C 453.598 132.83652 453.5772 133.04492 453.4313 133.15953 C 453.0145 133.50339 452.7853 133.9306 452.7853 134.38907 C 452.7853 134.81628 453.0041 135.2435 453.40004 135.57693 C 453.9523 136.0354 454.25447 136.63975 454.25447 137.26494 Z" fill="white"/>
            <path d="M 454.25447 137.26494 C 454.25447 137.92139 453.9419 138.53616 453.3792 138.99463 C 452.9624 139.33848 452.7332 139.7657 452.7332 140.22417 C 452.7332 140.6618 452.952 141.08901 453.3375 141.42245 C 453.473 141.53706 453.4938 141.75588 453.3792 141.89134 C 453.2646 142.0268 453.04577 142.04764 452.9103 141.93302 C 452.3685 141.47455 452.0663 140.8702 452.0663 140.22417 C 452.0663 139.56772 452.3789 138.95295 452.952 138.48406 C 453.3688 138.15062 453.5772 137.72341 453.5772 137.26494 C 453.5772 136.82731 453.35836 136.41052 452.97283 136.07708 C 452.431 135.60819 452.1288 135.00384 452.1288 134.37865 C 452.1288 133.7222 452.4414 133.10743 453.0145 132.63854 C 453.1604 132.52393 453.3688 132.54476 453.4834 132.69064 C 453.598 132.83652 453.5772 133.04492 453.4313 133.15953 C 453.0145 133.50339 452.7853 133.9306 452.7853 134.38907 C 452.7853 134.81628 453.0041 135.2435 453.40004 135.57693 C 453.9523 136.0354 454.25447 136.63975 454.25447 137.26494 Z" stroke="black" stroke-linecap="butt" stroke-linejoin="round" stroke-width=".25"/>
          </g>
        </g>
      </g>
      <g id="Group_81">
        <g id="Graphic_75">
          <path d="M 404.70984 282.5404 C 402.0414 278.7128 399.28165 274.75515 397.61767 270.44746 C 397.51373 270.17805 397.25504 270.00047 396.96653 270 C 396.96653 270 396.96606 270 396.9656 270 C 396.67755 270 396.4184 270.17712 396.314 270.4456 C 394.6598 274.69642 391.9168 278.63543 389.26516 282.44487 C 385.7946 287.4298 382.5165 292.1374 382.5165 296.63993 C 382.5165 304.56735 388.9981 311.01678 396.9656 311.01678 C 404.9331 311.01678 411.4147 304.56735 411.4147 296.63993 C 411.4147 292.1556 408.15805 287.48527 404.70984 282.5404 Z M 396.9656 309.61848 C 389.7695 309.61848 383.9148 303.79643 383.9148 296.63993 C 383.9148 292.576 387.07077 288.0432 390.41223 283.24376 C 392.7912 279.82725 395.24056 276.3082 396.9628 272.50482 C 398.69576 276.35993 401.1656 279.90183 403.56277 283.34024 C 406.88187 288.0996 410.0164 292.59512 410.0164 296.63993 C 410.0164 303.79643 404.1617 309.61848 396.9656 309.61848 Z" fill="white"/>
          <path d="M 404.70984 282.5404 C 402.0414 278.7128 399.28165 274.75515 397.61767 270.44746 C 397.51373 270.17805 397.25504 270.00047 396.96653 270 C 396.96653 270 396.96606 270 396.9656 270 C 396.67755 270 396.4184 270.17712 396.314 270.4456 C 394.6598 274.69642 391.9168 278.63543 389.26516 282.44487 C 385.7946 287.4298 382.5165 292.1374 382.5165 296.63993 C 382.5165 304.56735 388.9981 311.01678 396.9656 311.01678 C 404.9331 311.01678 411.4147 304.56735 411.4147 296.63993 C 411.4147 292.1556 408.15805 287.48527 404.70984 282.5404 Z M 396.9656 309.61848 C 389.7695 309.61848 383.9148 303.79643 383.9148 296.63993 C 383.9148 292.576 387.07077 288.0432 390.41223 283.24376 C 392.7912 279.82725 395.24056 276.3082 396.9628 272.50482 C 398.69576 276.35993 401.1656 279.90183 403.56277 283.34024 C 406.88187 288.0996 410.0164 292.59512 410.0164 296.63993 C 410.0164 303.79643 404.1617 309.61848 396.9656 309.61848 Z" stroke="black" stroke-linecap="butt" stroke-linejoin="round" stroke-width=".5"/>
        </g>
        <g id="Graphic_76">
          <path d="M 401.9142 290.06606 C 401.6075 289.83255 401.1684 289.8908 400.93397 290.1975 L 392.2729 301.5377 C 392.03846 301.8444 392.0972 302.28347 392.4039 302.5179 C 392.53066 302.6144 392.6798 302.66147 392.82756 302.66147 C 393.03824 302.66147 393.2461 302.56686 393.3836 302.38647 L 402.0447 291.04627 C 402.2796 290.7391 402.22087 290.3005 401.9142 290.06606 Z" fill="white"/>
          <path d="M 401.9142 290.06606 C 401.6075 289.83255 401.1684 289.8908 400.93397 290.1975 L 392.2729 301.5377 C 392.03846 301.8444 392.0972 302.28347 392.4039 302.5179 C 392.53066 302.6144 392.6798 302.66147 392.82756 302.66147 C 393.03824 302.66147 393.2461 302.56686 393.3836 302.38647 L 402.0447 291.04627 C 402.2796 290.7391 402.22087 290.3005 401.9142 290.06606 Z" stroke="black" stroke-linecap="butt" stroke-linejoin="round" stroke-width=".5"/>
        </g>
        <g id="Graphic_77">
          <path d="M 396.65005 293.4369 C 396.65005 291.65966 395.20933 290.21987 393.43256 290.21987 C 391.6544 290.21987 390.2146 291.66012 390.2146 293.4369 C 390.2146 295.21413 391.6544 296.65485 393.43256 296.65485 C 395.20933 296.6553 396.65005 295.2146 396.65005 293.4369 Z M 391.6129 293.4369 C 391.6129 292.4343 392.4295 291.61817 393.43256 291.61817 C 394.4356 291.61817 395.25175 292.4343 395.25175 293.4369 C 395.25175 294.43994 394.4356 295.25655 393.43256 295.25655 C 392.4295 295.25655 391.6129 294.4404 391.6129 293.4369 Z" fill="white"/>
          <path d="M 396.65005 293.4369 C 396.65005 291.65966 395.20933 290.21987 393.43256 290.21987 C 391.6544 290.21987 390.2146 291.66012 390.2146 293.4369 C 390.2146 295.21413 391.6544 296.65485 393.43256 296.65485 C 395.20933 296.6553 396.65005 295.2146 396.65005 293.4369 Z M 391.6129 293.4369 C 391.6129 292.4343 392.4295 291.61817 393.43256 291.61817 C 394.4356 291.61817 395.25175 292.4343 395.25175 293.4369 C 395.25175 294.43994 394.4356 295.25655 393.43256 295.25655 C 392.4295 295.25655 391.6129 294.4404 391.6129 293.4369 Z" stroke="black" stroke-linecap="butt" stroke-linejoin="round" stroke-width=".5"/>
        </g>
        <g id="Graphic_78">
          <path d="M 400.47113 296.6553 C 398.69343 296.6553 397.2532 298.09556 397.2532 299.8728 C 397.2532 301.65004 398.69343 303.09075 400.47113 303.09075 C 402.24837 303.09075 403.6886 301.65004 403.6886 299.8728 C 403.6886 298.09556 402.24837 296.6553 400.47113 296.6553 Z M 400.47113 301.69245 C 399.4681 301.69245 398.6515 300.8763 398.6515 299.8728 C 398.6515 298.86975 399.4681 298.0536 400.47113 298.0536 C 401.4742 298.0536 402.2903 298.86975 402.2903 299.8728 C 402.2908 300.8763 401.47464 301.69245 400.47113 301.69245 Z" fill="white"/>
          <path d="M 400.47113 296.6553 C 398.69343 296.6553 397.2532 298.09556 397.2532 299.8728 C 397.2532 301.65004 398.69343 303.09075 400.47113 303.09075 C 402.24837 303.09075 403.6886 301.65004 403.6886 299.8728 C 403.6886 298.09556 402.24837 296.6553 400.47113 296.6553 Z M 400.47113 301.69245 C 399.4681 301.69245 398.6515 300.8763 398.6515 299.8728 C 398.6515 298.86975 399.4681 298.0536 400.47113 298.0536 C 401.4742 298.0536 402.2903 298.86975 402.2903 299.8728 C 402.2908 300.8763 401.47464 301.69245 400.47113 301.69245 Z" stroke="black" stroke-linecap="butt" stroke-linejoin="round" stroke-width=".5"/>
        </g>
      </g>
    </g>
  </g>
</svg>
